<?xml version="1.0" encoding="utf-8"?>
<!-- Generator: Adobe Illustrator 26.4.1, SVG Export Plug-In . SVG Version: 6.00 Build 0)  -->
<svg version="1.1" id="Layer_1" xmlns="http://www.w3.org/2000/svg" xmlns:xlink="http://www.w3.org/1999/xlink" x="0px" y="0px"
	 viewBox="0 0 700 700" style="enable-background:new 0 0 700 700;" xml:space="preserve">
<style type="text/css">
	.st0{fill:#FFFFFF;}
</style>
<g>
	<path class="st0" d="M357.5,545.4c0.2-20.1-7.6-39.4-21.7-53.7c-14.1-14.3-33.3-22.4-53.4-22.6c-20.1-0.1-39.4,7.8-53.7,21.9
		c-14.3,14.1-22.3,33.4-22.4,53.5c-0.1,20.1,7.9,39.4,22.1,53.6c14.2,14.2,33.4,22.2,53.5,22.2c19.9,0,39-7.9,53.2-21.9
		C349.2,584.3,357.3,565.3,357.5,545.4L357.5,545.4z M248.6,545.4c-0.2-9.1,3.3-17.9,9.6-24.4c6.3-6.5,15-10.2,24.1-10.3
		c9.1-0.1,17.8,3.5,24.3,10c6.4,6.4,10,15.2,10,24.3c-0.1,9.1-3.8,17.8-10.3,24.1c-6.5,6.3-15.3,9.8-24.4,9.6
		c-8.8,0-17.3-3.5-23.5-9.7C252.1,562.7,248.6,554.2,248.6,545.4L248.6,545.4z"/>
	<path class="st0" d="M566.2,545.4c0-19.9-7.9-38.9-21.9-53c-14-14-33.1-21.9-53-21.9c-19.9,0-38.9,7.9-53,21.9
		c-14,14-21.9,33.1-21.9,53c0,19.9,7.9,38.9,21.9,53c14,14,33.1,21.9,53,21.9c19.9,0,38.9-7.9,53-21.9
		C558.3,584.3,566.2,565.2,566.2,545.4z M458,545.4c0.2-8.8,3.7-17.1,9.9-23.3c6.2-6.2,14.6-9.8,23.3-9.9c8.8,0,17.3,3.5,23.5,9.7
		c6.2,6.2,9.8,14.7,9.8,23.5c0.2,8.9-3.3,17.5-9.5,23.7c-6.3,6.3-14.9,9.7-23.8,9.5c-8.8,0-17.3-3.5-23.5-9.7
		C461.5,562.7,458,554.2,458,545.4L458,545.4z"/>
	<path class="st0" d="M608.5,194.5H204.9l-16-81.8c-1-4-3.1-7.7-6-10.6c-2.9-2.9-6.6-5-10.6-6L99.5,82.1v0c-5.5-1-11.2,0.1-15.9,3.2
		c-4.7,3.1-7.9,7.9-9.1,13.4c-1,5.4,0.2,11,3.3,15.6c3.1,4.6,7.9,7.7,13.4,8.7l59.6,11.1l50.6,255.2v0c3.5,17.3,12.9,32.9,26.5,44.2
		c13.6,11.2,30.7,17.4,48.4,17.6h227.5c16.5,0.1,32.6-5.2,45.9-15.1c13.3-9.9,22.9-23.8,27.6-39.7l51.3-176.1
		c1.6-6.2,0.3-12.8-3.5-18C621.1,197.1,614.9,194.3,608.5,194.5L608.5,194.5z M537.1,385.2c-1.9,7.3-6.2,13.8-12.3,18.3
		c-6.1,4.5-13.5,6.9-21,6.6H276.3c-8,0-15.7-2.8-21.9-7.8c-6.2-5.1-10.4-12.1-12-19.9l-29.1-146.3h367.5L537.1,385.2z"/>
</g>
</svg>
